{
    "asset" : {
        "generator" : "Khronos glTF Blender I/O v1.8.19",
        "version" : "2.0"
    },
    "scene" : 0,
    "scenes" : [
        {
            "name" : "Scene",
            "nodes" : [
                0
            ]
        }
    ],
    "nodes" : [
        {
            "mesh" : 0,
            "name" : "old_monitor"
        }
    ],
    "meshes" : [
        {
            "name" : "old_monitor",
            "primitives" : [
                {
                    "attributes" : {
                        "POSITION" : 0,
                        "NORMAL" : 1
                    },
                    "indices" : 2
                }
            ]
        }
    ],
    "accessors" : [
        {
            "bufferView" : 0,
            "componentType" : 5126,
            "count" : 966,
            "max" : [
                1.0001481771469116,
                2.010385513305664,
                1.1184748411178589
            ],
            "min" : [
                -1.0001487731933594,
                0.01008903980255127,
                -1.000000238418579
            ],
            "type" : "VEC3"
        },
        {
            "bufferView" : 1,
            "componentType" : 5126,
            "count" : 966,
            "type" : "VEC3"
        },
        {
            "bufferView" : 2,
            "componentType" : 5123,
            "count" : 2166,
            "type" : "SCALAR"
        }
    ],
    "bufferViews" : [
        {
            "buffer" : 0,
            "byteLength" : 11592,
            "byteOffset" : 0
        },
        {
            "buffer" : 0,
            "byteLength" : 11592,
            "byteOffset" : 11592
        },
        {
            "buffer" : 0,
            "byteLength" : 4332,
            "byteOffset" : 23184
        }
    ],
    "buffers" : [
        {
            "byteLength" : 27516,
            "uri" : "data:application/octet-stream;base64,"
        }
    ]
}
