<?xml version="1.0" standalone="no"?>
<!DOCTYPE svg PUBLIC "-//W3C//DTD SVG 20010904//EN"
 "http://www.w3.org/TR/2001/REC-SVG-20010904/DTD/svg10.dtd">
<svg version="1.0" xmlns="http://www.w3.org/2000/svg"
 width="1921.000000pt" height="1921.000000pt" viewBox="0 0 1921.000000 1921.000000"
 preserveAspectRatio="xMidYMid meet">
<metadata>
Created by potrace 1.14, written by Peter Selinger 2001-2017
</metadata>
<g transform="translate(0.000000,1921.000000) scale(0.100000,-0.100000)"
fill="#000000" stroke="none">
<path d="M9079 19196 c-2 -2 -53 -7 -114 -11 -169 -10 -325 -23 -375 -30 -14
-2 -54 -6 -90 -10 -36 -4 -76 -8 -90 -10 -14 -2 -49 -7 -79 -10 -30 -4 -62 -8
-72 -10 -10 -2 -44 -6 -76 -10 -32 -3 -65 -8 -73 -10 -8 -2 -33 -7 -55 -10
-23 -3 -50 -7 -62 -9 -11 -3 -38 -7 -59 -10 -22 -4 -46 -8 -54 -11 -8 -2 -32
-6 -53 -9 -21 -4 -71 -13 -110 -21 -40 -8 -83 -16 -97 -19 -59 -11 -178 -38
-215 -48 -22 -5 -51 -12 -65 -15 -100 -18 -518 -136 -745 -209 -186 -61 -498
-174 -509 -185 -6 -5 -16 -9 -24 -9 -13 0 -314 -125 -462 -193 -102 -46 -475
-232 -580 -288 -75 -41 -253 -143 -458 -264 -148 -87 -614 -401 -668 -450 -6
-5 -22 -17 -34 -25 -65 -44 -432 -333 -476 -375 -6 -5 -37 -32 -69 -60 -263
-223 -651 -602 -871 -851 -34 -38 -73 -81 -85 -95 -27 -28 -73 -82 -127 -148
-21 -25 -54 -65 -76 -90 -56 -68 -68 -82 -106 -131 -19 -25 -37 -47 -40 -50
-9 -8 -231 -307 -296 -400 -132 -188 -220 -323 -413 -640 -111 -180 -358 -653
-453 -864 -28 -61 -61 -136 -75 -166 -14 -30 -34 -77 -45 -105 -10 -27 -25
-63 -33 -80 -59 -130 -206 -532 -276 -760 -50 -159 -126 -421 -133 -455 -2
-14 -16 -68 -29 -120 -26 -100 -63 -258 -71 -300 -4 -24 -19 -97 -31 -150 -15
-70 -56 -304 -70 -400 -6 -41 -17 -114 -20 -130 -2 -8 -6 -42 -9 -75 -4 -33
-9 -71 -11 -85 -5 -32 -12 -97 -22 -185 -11 -94 -10 -1908 0 -2010 5 -44 10
-93 13 -110 2 -16 6 -48 9 -70 16 -136 27 -209 55 -380 26 -160 44 -255 77
-409 13 -65 27 -130 29 -145 40 -220 280 -1025 369 -1236 7 -16 41 -102 75
-190 64 -163 80 -202 131 -313 16 -35 29 -65 29 -67 0 -15 241 -505 305 -620
192 -347 331 -576 510 -840 86 -127 331 -465 344 -475 4 -3 20 -23 37 -45 77
-105 276 -344 404 -485 349 -388 738 -759 1115 -1064 66 -53 127 -102 135
-109 33 -27 328 -247 380 -282 119 -83 358 -242 405 -269 28 -16 52 -32 55
-35 3 -3 14 -11 25 -18 85 -51 236 -140 274 -161 25 -14 63 -36 83 -49 21 -12
40 -23 42 -23 3 0 29 -14 58 -31 83 -49 530 -271 663 -329 66 -29 138 -60 160
-70 301 -134 792 -306 1195 -419 149 -42 448 -116 509 -126 19 -3 37 -8 40
-10 4 -2 26 -6 51 -10 25 -4 47 -8 50 -10 3 -2 25 -6 50 -10 25 -4 47 -8 50
-10 3 -2 24 -6 46 -9 22 -4 51 -9 64 -11 14 -3 52 -10 85 -15 33 -5 69 -12 80
-14 22 -4 96 -16 135 -21 14 -2 50 -7 80 -11 30 -5 60 -9 65 -9 29 -3 143 -17
165 -20 14 -2 54 -6 90 -10 36 -3 81 -8 100 -10 19 -2 73 -7 120 -10 47 -3
101 -8 120 -10 205 -25 974 -25 1340 -1 122 9 228 17 260 21 19 2 60 7 90 10
76 8 237 28 320 40 14 2 47 6 73 10 27 4 58 8 70 11 12 2 39 6 62 9 22 3 66
10 97 16 32 6 70 12 85 15 16 2 71 13 123 24 52 10 106 21 120 24 14 2 45 9
70 15 25 5 56 12 70 14 14 3 74 17 134 32 59 15 116 28 125 31 9 2 34 8 56 14
22 6 47 12 55 14 147 38 535 155 585 176 11 5 56 20 100 35 369 123 1002 399
1343 586 28 16 78 43 110 60 88 49 310 177 382 221 134 83 169 106 340 220
213 142 498 348 573 413 7 6 56 45 109 88 379 302 824 724 1127 1067 46 52 98
111 115 130 38 41 220 262 256 310 14 18 30 38 35 44 20 21 172 222 220 291
27 39 52 72 56 75 9 7 224 330 294 440 33 53 66 105 72 115 7 11 22 36 33 55
11 19 29 49 39 65 221 360 520 978 696 1435 144 376 338 999 370 1189 3 19 8
37 10 41 2 3 6 17 8 31 3 13 12 53 21 89 40 166 106 527 131 720 3 25 8 52 10
60 2 8 7 44 10 80 4 36 9 74 11 85 2 11 6 43 8 70 4 46 11 111 21 210 4 38 12
137 20 250 23 314 23 957 0 1255 -7 93 -15 193 -20 240 -2 25 -7 77 -10 115
-3 39 -8 79 -10 90 -2 11 -7 51 -10 88 -4 37 -8 76 -9 85 -2 9 -7 40 -10 67
-14 95 -17 120 -21 145 -4 23 -31 186 -39 235 -2 11 -7 38 -11 60 -4 22 -15
81 -25 130 -10 50 -21 101 -24 115 -5 26 -41 186 -57 255 -5 22 -11 49 -14 60
-71 306 -249 868 -365 1155 -10 25 -30 74 -44 110 -46 118 -145 350 -164 386
-6 10 -34 71 -64 134 -217 467 -501 956 -825 1420 -81 116 -303 412 -364 485
-10 11 -64 76 -120 145 -57 69 -106 127 -109 130 -6 6 -148 165 -195 220 -58
66 -531 536 -609 605 -44 39 -89 79 -100 90 -12 11 -48 43 -81 70 -33 28 -62
53 -65 56 -6 7 -221 183 -274 224 -21 17 -44 35 -50 40 -51 48 -465 343 -656
467 -127 83 -428 268 -436 268 -2 0 -22 11 -43 24 -108 68 -571 308 -746 386
-27 12 -72 32 -100 45 -27 12 -84 37 -125 54 -100 43 -106 45 -170 71 -30 12
-68 28 -85 35 -156 69 -803 285 -955 320 -8 2 -42 11 -75 20 -33 9 -67 18 -75
20 -8 2 -40 10 -70 19 -30 8 -116 28 -191 46 -155 35 -137 31 -284 60 -60 11
-130 25 -155 30 -54 11 -332 56 -410 65 -30 4 -62 9 -70 10 -8 2 -44 6 -80 9
-36 4 -76 9 -90 11 -23 4 -113 13 -205 20 -22 2 -69 6 -105 9 -36 4 -101 9
-145 13 -86 6 -1110 15 -1116 9z"/>
</g>
</svg>
